<svg width="596" height="237" viewBox="0 0 596 237" fill="none" xmlns="http://www.w3.org/2000/svg">
<rect x="1" y="2" width="578" height="83" rx="9" fill="white" stroke="#333333" stroke-width="2"/>
<line x1="104" y1="4.37114e-08" x2="104" y2="86" stroke="#333333" stroke-width="2"/>
<path d="M171.534 54.0003C171.257 54.0003 171.044 53.9363 170.894 53.8083C170.745 53.6589 170.617 53.4563 170.51 53.2003L165.966 38.3523C165.924 38.2456 165.902 38.1389 165.902 38.0323C165.902 37.8403 165.966 37.6803 166.094 37.5523C166.244 37.4243 166.404 37.3603 166.574 37.3603H167.982C168.217 37.3603 168.398 37.4243 168.526 37.5523C168.654 37.6803 168.74 37.7976 168.782 37.9043L172.334 49.9683L176.142 38.0323C176.185 37.8829 176.27 37.7336 176.398 37.5843C176.548 37.4349 176.761 37.3603 177.038 37.3603H178.126C178.404 37.3603 178.617 37.4349 178.766 37.5843C178.916 37.7336 179.001 37.8829 179.022 38.0323L182.83 49.9683L186.382 37.9043C186.404 37.7976 186.478 37.6803 186.606 37.5523C186.734 37.4243 186.916 37.3603 187.15 37.3603H188.558C188.75 37.3603 188.91 37.4243 189.038 37.5523C189.166 37.6803 189.23 37.8403 189.23 38.0323C189.23 38.1389 189.209 38.2456 189.166 38.3523L184.622 53.2003C184.558 53.4563 184.441 53.6589 184.27 53.8083C184.121 53.9363 183.897 54.0003 183.598 54.0003H182.35C182.073 54.0003 181.838 53.9363 181.646 53.8083C181.476 53.6589 181.358 53.4563 181.294 53.2003L177.582 41.7443L173.87 53.2003C173.785 53.4563 173.657 53.6589 173.486 53.8083C173.316 53.9363 173.081 54.0003 172.782 54.0003H171.534Z" fill="#333333"/>
<path d="M197.191 54.0003C196.913 54.0003 196.7 53.9363 196.551 53.8083C196.401 53.6589 196.273 53.4563 196.167 53.2003L191.623 38.3523C191.58 38.2456 191.559 38.1389 191.559 38.0323C191.559 37.8403 191.623 37.6803 191.751 37.5523C191.9 37.4243 192.06 37.3603 192.231 37.3603H193.639C193.873 37.3603 194.055 37.4243 194.183 37.5523C194.311 37.6803 194.396 37.7976 194.439 37.9043L197.991 49.9683L201.799 38.0323C201.841 37.8829 201.927 37.7336 202.055 37.5843C202.204 37.4349 202.417 37.3603 202.695 37.3603H203.783C204.06 37.3603 204.273 37.4349 204.423 37.5843C204.572 37.7336 204.657 37.8829 204.679 38.0323L208.487 49.9683L212.039 37.9043C212.06 37.7976 212.135 37.6803 212.263 37.5523C212.391 37.4243 212.572 37.3603 212.807 37.3603H214.215C214.407 37.3603 214.567 37.4243 214.695 37.5523C214.823 37.6803 214.887 37.8403 214.887 38.0323C214.887 38.1389 214.865 38.2456 214.823 38.3523L210.279 53.2003C210.215 53.4563 210.097 53.6589 209.927 53.8083C209.777 53.9363 209.553 54.0003 209.255 54.0003H208.007C207.729 54.0003 207.495 53.9363 207.303 53.8083C207.132 53.6589 207.015 53.4563 206.951 53.2003L203.239 41.7443L199.527 53.2003C199.441 53.4563 199.313 53.6589 199.143 53.8083C198.972 53.9363 198.737 54.0003 198.439 54.0003H197.191Z" fill="#333333"/>
<path d="M222.847 54.0003C222.57 54.0003 222.356 53.9363 222.207 53.8083C222.058 53.6589 221.93 53.4563 221.823 53.2003L217.279 38.3523C217.236 38.2456 217.215 38.1389 217.215 38.0323C217.215 37.8403 217.279 37.6803 217.407 37.5523C217.556 37.4243 217.716 37.3603 217.887 37.3603H219.295C219.53 37.3603 219.711 37.4243 219.839 37.5523C219.967 37.6803 220.052 37.7976 220.095 37.9043L223.647 49.9683L227.455 38.0323C227.498 37.8829 227.583 37.7336 227.711 37.5843C227.86 37.4349 228.074 37.3603 228.351 37.3603H229.439C229.716 37.3603 229.93 37.4349 230.079 37.5843C230.228 37.7336 230.314 37.8829 230.335 38.0323L234.143 49.9683L237.695 37.9043C237.716 37.7976 237.791 37.6803 237.919 37.5523C238.047 37.4243 238.228 37.3603 238.463 37.3603H239.871C240.063 37.3603 240.223 37.4243 240.351 37.5523C240.479 37.6803 240.543 37.8403 240.543 38.0323C240.543 38.1389 240.522 38.2456 240.479 38.3523L235.935 53.2003C235.871 53.4563 235.754 53.6589 235.583 53.8083C235.434 53.9363 235.21 54.0003 234.911 54.0003H233.663C233.386 54.0003 233.151 53.9363 232.959 53.8083C232.788 53.6589 232.671 53.4563 232.607 53.2003L228.895 41.7443L225.183 53.2003C225.098 53.4563 224.97 53.6589 224.799 53.8083C224.628 53.9363 224.394 54.0003 224.095 54.0003H222.847Z" fill="#333333"/>
<path d="M243.318 54.0003C243.105 54.0003 242.923 53.9363 242.774 53.8083C242.646 53.6589 242.582 53.4776 242.582 53.2643V50.9603C242.582 50.7469 242.646 50.5763 242.774 50.4483C242.923 50.2989 243.105 50.2243 243.318 50.2243H245.622C245.835 50.2243 246.006 50.2989 246.134 50.4483C246.283 50.5763 246.358 50.7469 246.358 50.9603V53.2643C246.358 53.4776 246.283 53.6589 246.134 53.8083C246.006 53.9363 245.835 54.0003 245.622 54.0003H243.318Z" fill="#333333"/>
<path d="M251.937 60.0803C251.766 60.0803 251.617 60.0163 251.489 59.8883C251.361 59.7603 251.297 59.6109 251.297 59.4403C251.297 59.3549 251.307 59.2696 251.329 59.1843C251.35 59.0989 251.393 58.9923 251.457 58.8643L253.921 53.0083L247.809 38.5763C247.702 38.3203 247.649 38.1389 247.649 38.0323C247.649 37.8403 247.713 37.6803 247.841 37.5523C247.969 37.4243 248.129 37.3603 248.321 37.3603H249.889C250.102 37.3603 250.273 37.4136 250.401 37.5203C250.529 37.6269 250.614 37.7549 250.657 37.9043L255.521 49.5523L260.513 37.9043C260.577 37.7549 260.662 37.6269 260.769 37.5203C260.897 37.4136 261.078 37.3603 261.313 37.3603H262.817C263.009 37.3603 263.169 37.4243 263.297 37.5523C263.425 37.6803 263.489 37.8296 263.489 38.0003C263.489 38.1069 263.435 38.2989 263.329 38.5763L254.241 59.5363C254.177 59.6856 254.081 59.8136 253.953 59.9203C253.846 60.0269 253.675 60.0803 253.441 60.0803H251.937Z" fill="#333333"/>
<path d="M272.903 54.3203C271.282 54.3203 269.927 54.0109 268.839 53.3923C267.751 52.7736 266.919 51.9203 266.343 50.8323C265.767 49.7229 265.447 48.4643 265.383 47.0563C265.362 46.6936 265.351 46.2349 265.351 45.6803C265.351 45.1043 265.362 44.6456 265.383 44.3043C265.447 42.8749 265.767 41.6163 266.343 40.5283C266.94 39.4403 267.783 38.5869 268.871 37.9683C269.959 37.3496 271.303 37.0403 272.903 37.0403C274.503 37.0403 275.847 37.3496 276.935 37.9683C278.023 38.5869 278.855 39.4403 279.431 40.5283C280.028 41.6163 280.359 42.8749 280.423 44.3043C280.444 44.6456 280.455 45.1043 280.455 45.6803C280.455 46.2349 280.444 46.6936 280.423 47.0563C280.359 48.4643 280.039 49.7229 279.463 50.8323C278.887 51.9203 278.055 52.7736 276.967 53.3923C275.879 54.0109 274.524 54.3203 272.903 54.3203ZM272.903 51.8563C274.226 51.8563 275.282 51.4403 276.071 50.6083C276.86 49.7549 277.287 48.5176 277.351 46.8963C277.372 46.5763 277.383 46.1709 277.383 45.6803C277.383 45.1896 277.372 44.7843 277.351 44.4643C277.287 42.8429 276.86 41.6163 276.071 40.7843C275.282 39.9309 274.226 39.5043 272.903 39.5043C271.58 39.5043 270.514 39.9309 269.703 40.7843C268.914 41.6163 268.498 42.8429 268.455 44.4643C268.434 44.7843 268.423 45.1896 268.423 45.6803C268.423 46.1709 268.434 46.5763 268.455 46.8963C268.498 48.5176 268.914 49.7549 269.703 50.6083C270.514 51.4403 271.58 51.8563 272.903 51.8563Z" fill="#333333"/>
<path d="M290.67 54.3203C289.305 54.3203 288.142 54.0216 287.182 53.4243C286.243 52.8056 285.529 51.9523 285.038 50.8643C284.547 49.7763 284.302 48.5283 284.302 47.1203V38.0963C284.302 37.8829 284.366 37.7123 284.494 37.5843C284.643 37.4349 284.825 37.3603 285.038 37.3603H286.638C286.851 37.3603 287.022 37.4349 287.15 37.5843C287.299 37.7123 287.374 37.8829 287.374 38.0963V46.9603C287.374 50.1389 288.761 51.7283 291.534 51.7283C292.857 51.7283 293.913 51.3123 294.702 50.4803C295.513 49.6269 295.918 48.4536 295.918 46.9603V38.0963C295.918 37.8829 295.982 37.7123 296.11 37.5843C296.259 37.4349 296.441 37.3603 296.654 37.3603H298.222C298.457 37.3603 298.638 37.4349 298.766 37.5843C298.894 37.7123 298.958 37.8829 298.958 38.0963V53.2643C298.958 53.4776 298.894 53.6589 298.766 53.8083C298.638 53.9363 298.457 54.0003 298.222 54.0003H296.75C296.537 54.0003 296.355 53.9363 296.206 53.8083C296.078 53.6589 296.014 53.4776 296.014 53.2643V51.8563C295.438 52.6029 294.734 53.2003 293.902 53.6483C293.091 54.0963 292.014 54.3203 290.67 54.3203Z" fill="#333333"/>
<path d="M304.448 54.0003C304.235 54.0003 304.053 53.9363 303.904 53.8083C303.776 53.6589 303.712 53.4776 303.712 53.2643V38.1283C303.712 37.9149 303.776 37.7336 303.904 37.5843C304.053 37.4349 304.235 37.3603 304.448 37.3603H305.92C306.133 37.3603 306.315 37.4349 306.464 37.5843C306.613 37.7336 306.688 37.9149 306.688 38.1283V39.5363C307.115 38.8109 307.701 38.2669 308.448 37.9043C309.195 37.5416 310.091 37.3603 311.136 37.3603H312.416C312.629 37.3603 312.8 37.4349 312.928 37.5843C313.056 37.7123 313.12 37.8829 313.12 38.0963V39.4083C313.12 39.6216 313.056 39.7923 312.928 39.9203C312.8 40.0483 312.629 40.1123 312.416 40.1123H310.496C309.344 40.1123 308.437 40.4536 307.776 41.1363C307.115 41.7976 306.784 42.7043 306.784 43.8563V53.2643C306.784 53.4776 306.709 53.6589 306.56 53.8083C306.411 53.9363 306.229 54.0003 306.016 54.0003H304.448Z" fill="#333333"/>
<path d="M316.604 54.0003C316.391 54.0003 316.21 53.9363 316.06 53.8083C315.932 53.6589 315.868 53.4776 315.868 53.2643V38.0963C315.868 37.8829 315.932 37.7123 316.06 37.5843C316.21 37.4349 316.391 37.3603 316.604 37.3603H318.044C318.258 37.3603 318.428 37.4349 318.556 37.5843C318.706 37.7123 318.78 37.8829 318.78 38.0963V39.2163C319.271 38.5549 319.89 38.0323 320.636 37.6483C321.383 37.2429 322.279 37.0403 323.324 37.0403C325.735 37.0189 327.442 38.0003 328.444 39.9843C328.935 39.0883 329.65 38.3736 330.588 37.8403C331.527 37.3069 332.594 37.0403 333.788 37.0403C334.898 37.0403 335.9 37.2963 336.796 37.8083C337.714 38.3203 338.428 39.0989 338.94 40.1443C339.474 41.1683 339.74 42.4589 339.74 44.0163V53.2643C339.74 53.4776 339.666 53.6589 339.516 53.8083C339.388 53.9363 339.218 54.0003 339.004 54.0003H337.5C337.287 54.0003 337.106 53.9363 336.956 53.8083C336.828 53.6589 336.764 53.4776 336.764 53.2643V44.3043C336.764 43.1096 336.594 42.1709 336.252 41.4883C335.911 40.8056 335.452 40.3256 334.876 40.0483C334.3 39.7709 333.671 39.6323 332.988 39.6323C332.434 39.6323 331.868 39.7709 331.292 40.0483C330.716 40.3256 330.236 40.8056 329.852 41.4883C329.49 42.1709 329.308 43.1096 329.308 44.3043V53.2643C329.308 53.4776 329.234 53.6589 329.084 53.8083C328.956 53.9363 328.786 54.0003 328.572 54.0003H327.068C326.855 54.0003 326.674 53.9363 326.524 53.8083C326.396 53.6589 326.332 53.4776 326.332 53.2643V44.3043C326.332 43.1096 326.151 42.1709 325.788 41.4883C325.426 40.8056 324.956 40.3256 324.38 40.0483C323.804 39.7709 323.196 39.6323 322.556 39.6323C322.002 39.6323 321.436 39.7709 320.86 40.0483C320.284 40.3256 319.804 40.8056 319.42 41.4883C319.058 42.1709 318.876 43.0989 318.876 44.2723V53.2643C318.876 53.4776 318.802 53.6589 318.652 53.8083C318.524 53.9363 318.354 54.0003 318.14 54.0003H316.604Z" fill="#333333"/>
<path d="M348.946 54.3203C347.879 54.3203 346.909 54.1069 346.034 53.6803C345.159 53.2536 344.455 52.6776 343.922 51.9523C343.389 51.2269 343.122 50.4056 343.122 49.4883C343.122 48.0163 343.719 46.8429 344.914 45.9683C346.109 45.0936 347.666 44.5176 349.586 44.2403L354.354 43.5683V42.6403C354.354 41.6163 354.055 40.8163 353.458 40.2403C352.882 39.6643 351.932 39.3763 350.61 39.3763C349.65 39.3763 348.871 39.5683 348.274 39.9523C347.698 40.3363 347.292 40.8269 347.058 41.4243C346.93 41.7443 346.706 41.9043 346.386 41.9043H344.946C344.711 41.9043 344.53 41.8403 344.402 41.7123C344.295 41.5629 344.242 41.3923 344.242 41.2003C344.242 40.8803 344.359 40.4856 344.594 40.0163C344.85 39.5469 345.234 39.0883 345.746 38.6403C346.258 38.1923 346.909 37.8189 347.698 37.5203C348.509 37.2003 349.49 37.0403 350.642 37.0403C351.922 37.0403 352.999 37.2109 353.874 37.5523C354.749 37.8723 355.431 38.3096 355.922 38.8643C356.434 39.4189 356.797 40.0483 357.01 40.7523C357.245 41.4563 357.362 42.1709 357.362 42.8963V53.2643C357.362 53.4776 357.287 53.6589 357.138 53.8083C357.01 53.9363 356.839 54.0003 356.626 54.0003H355.154C354.919 54.0003 354.738 53.9363 354.61 53.8083C354.482 53.6589 354.418 53.4776 354.418 53.2643V51.8883C354.141 52.2723 353.767 52.6563 353.298 53.0403C352.829 53.4029 352.242 53.7123 351.538 53.9683C350.834 54.2029 349.97 54.3203 348.946 54.3203ZM349.618 51.9203C350.492 51.9203 351.293 51.7389 352.018 51.3763C352.743 50.9923 353.309 50.4056 353.714 49.6163C354.141 48.8269 354.354 47.8349 354.354 46.6403V45.7443L350.642 46.2883C349.127 46.5016 347.986 46.8643 347.218 47.3763C346.45 47.8669 346.066 48.4963 346.066 49.2643C346.066 49.8616 346.237 50.3629 346.578 50.7683C346.941 51.1523 347.389 51.4403 347.922 51.6323C348.477 51.8243 349.042 51.9203 349.618 51.9203Z" fill="#333333"/>
<path d="M362.73 60.0803C362.517 60.0803 362.335 60.0056 362.186 59.8563C362.058 59.7283 361.994 59.5576 361.994 59.3443V38.0963C361.994 37.8829 362.058 37.7123 362.186 37.5843C362.335 37.4349 362.517 37.3603 362.73 37.3603H364.202C364.415 37.3603 364.586 37.4349 364.714 37.5843C364.863 37.7123 364.938 37.8829 364.938 38.0963V39.5043C365.45 38.8003 366.133 38.2136 366.986 37.7443C367.839 37.2749 368.906 37.0403 370.186 37.0403C371.381 37.0403 372.394 37.2429 373.226 37.6483C374.079 38.0536 374.773 38.6083 375.306 39.3123C375.861 40.0163 376.277 40.8163 376.554 41.7123C376.831 42.6083 376.981 43.5683 377.002 44.5923C377.023 44.9336 377.034 45.2963 377.034 45.6803C377.034 46.0643 377.023 46.4269 377.002 46.7683C376.981 47.7709 376.831 48.7309 376.554 49.6483C376.277 50.5443 375.861 51.3443 375.306 52.0483C374.773 52.7309 374.079 53.2856 373.226 53.7123C372.394 54.1176 371.381 54.3203 370.186 54.3203C368.949 54.3203 367.903 54.0963 367.05 53.6483C366.218 53.1789 365.535 52.6029 365.002 51.9203V59.3443C365.002 59.5576 364.938 59.7283 364.81 59.8563C364.682 60.0056 364.501 60.0803 364.266 60.0803H362.73ZM369.514 51.7283C370.623 51.7283 371.487 51.4936 372.106 51.0243C372.746 50.5336 373.205 49.9043 373.482 49.1363C373.759 48.3469 373.919 47.5043 373.962 46.6083C373.983 45.9896 373.983 45.3709 373.962 44.7523C373.919 43.8563 373.759 43.0243 373.482 42.2563C373.205 41.4669 372.746 40.8376 372.106 40.3683C371.487 39.8776 370.623 39.6323 369.514 39.6323C368.469 39.6323 367.615 39.8776 366.954 40.3683C366.314 40.8589 365.834 41.4883 365.514 42.2563C365.215 43.0029 365.045 43.7709 365.002 44.5603C364.981 44.9016 364.97 45.3069 364.97 45.7763C364.97 46.2456 364.981 46.6616 365.002 47.0243C365.023 47.7709 365.194 48.5069 365.514 49.2323C365.855 49.9576 366.357 50.5549 367.018 51.0243C367.679 51.4936 368.511 51.7283 369.514 51.7283Z" fill="#333333"/>
<path d="M381.224 54.0003C381.011 54.0003 380.829 53.9363 380.68 53.8083C380.552 53.6589 380.488 53.4776 380.488 53.2643V50.9603C380.488 50.7469 380.552 50.5763 380.68 50.4483C380.829 50.2989 381.011 50.2243 381.224 50.2243H383.528C383.741 50.2243 383.912 50.2989 384.04 50.4483C384.189 50.5763 384.264 50.7469 384.264 50.9603V53.2643C384.264 53.4776 384.189 53.6589 384.04 53.8083C383.912 53.9363 383.741 54.0003 383.528 54.0003H381.224Z" fill="#333333"/>
<path d="M394.639 54.3203C393.273 54.3203 392.111 54.0216 391.151 53.4243C390.212 52.8056 389.498 51.9523 389.007 50.8643C388.516 49.7763 388.271 48.5283 388.271 47.1203V38.0963C388.271 37.8829 388.335 37.7123 388.463 37.5843C388.612 37.4349 388.794 37.3603 389.007 37.3603H390.607C390.82 37.3603 390.991 37.4349 391.119 37.5843C391.268 37.7123 391.343 37.8829 391.343 38.0963V46.9603C391.343 50.1389 392.73 51.7283 395.503 51.7283C396.826 51.7283 397.882 51.3123 398.671 50.4803C399.482 49.6269 399.887 48.4536 399.887 46.9603V38.0963C399.887 37.8829 399.951 37.7123 400.079 37.5843C400.228 37.4349 400.41 37.3603 400.623 37.3603H402.191C402.425 37.3603 402.607 37.4349 402.735 37.5843C402.863 37.7123 402.927 37.8829 402.927 38.0963V53.2643C402.927 53.4776 402.863 53.6589 402.735 53.8083C402.607 53.9363 402.425 54.0003 402.191 54.0003H400.719C400.506 54.0003 400.324 53.9363 400.175 53.8083C400.047 53.6589 399.983 53.4776 399.983 53.2643V51.8563C399.407 52.6029 398.703 53.2003 397.871 53.6483C397.06 54.0963 395.983 54.3203 394.639 54.3203Z" fill="#333333"/>
<path d="M408.417 54.0003C408.204 54.0003 408.022 53.9363 407.873 53.8083C407.745 53.6589 407.681 53.4776 407.681 53.2643V38.1283C407.681 37.9149 407.745 37.7336 407.873 37.5843C408.022 37.4349 408.204 37.3603 408.417 37.3603H409.889C410.102 37.3603 410.283 37.4349 410.433 37.5843C410.582 37.7336 410.657 37.9149 410.657 38.1283V39.5363C411.083 38.8109 411.67 38.2669 412.417 37.9043C413.164 37.5416 414.059 37.3603 415.105 37.3603H416.385C416.598 37.3603 416.769 37.4349 416.897 37.5843C417.025 37.7123 417.089 37.8829 417.089 38.0963V39.4083C417.089 39.6216 417.025 39.7923 416.897 39.9203C416.769 40.0483 416.598 40.1123 416.385 40.1123H414.465C413.313 40.1123 412.406 40.4536 411.745 41.1363C411.084 41.7976 410.753 42.7043 410.753 43.8563V53.2643C410.753 53.4776 410.678 53.6589 410.529 53.8083C410.38 53.9363 410.198 54.0003 409.985 54.0003H408.417Z" fill="#333333"/>
<path d="M420.605 54.0003C420.392 54.0003 420.21 53.9363 420.061 53.8083C419.933 53.6589 419.869 53.4776 419.869 53.2643V32.0163C419.869 31.8029 419.933 31.6323 420.061 31.5043C420.21 31.3549 420.392 31.2803 420.605 31.2803H422.109C422.344 31.2803 422.525 31.3549 422.653 31.5043C422.781 31.6323 422.845 31.8029 422.845 32.0163V53.2643C422.845 53.4776 422.781 53.6589 422.653 53.8083C422.525 53.9363 422.344 54.0003 422.109 54.0003H420.605Z" fill="#333333"/>
<path d="M475 200L471.5 93.5H475L553 165.5L522.5 176L542 216L536 228.5H522.5L503.5 185L475 200Z" fill="white"/>
<path fill-rule="evenodd" clip-rule="evenodd" d="M527.128 177.212L543.014 212.24C546.219 219.315 543.055 227.729 535.985 230.936C528.909 234.145 520.494 230.982 517.285 223.906L501.399 188.877L479.454 202.778C475.801 205.095 471.049 202.54 470.952 198.216L468.768 95.0661C468.663 90.2167 474.462 87.5871 478.042 90.8564L554.202 160.46C557.398 163.379 556.184 168.635 552.033 169.861L527.122 177.214L527.128 177.212ZM548.827 164.168L475.182 96.864L477.298 196.603L499.841 182.33C502.148 180.868 505.182 181.773 506.309 184.264L523.096 221.273C524.853 225.146 529.485 226.888 533.359 225.131C537.233 223.375 538.976 218.738 537.218 214.868L520.436 177.857C519.304 175.367 520.622 172.489 523.248 171.714L548.835 164.164L548.827 164.168Z" fill="#333333"/>
<path d="M451.844 53.1206C451.115 51.5205 451.826 49.6297 453.428 48.9063C455.033 48.1788 456.919 48.8881 457.643 50.4908L466.511 70.0369C467.234 71.6395 466.525 73.5261 464.925 74.2552C463.322 74.9785 461.436 74.2692 460.706 72.6692L451.844 53.1206Z" fill="#333333"/>
<path d="M491.501 49.3691C492.12 47.7242 493.958 46.8932 495.604 47.5121C497.249 48.1305 498.086 49.9662 497.467 51.6121L489.914 71.7016C489.295 73.3465 487.455 74.1818 485.809 73.563C484.165 72.9445 483.329 71.1047 483.948 69.4587L491.501 49.3691Z" fill="#333333"/>
<path d="M522.193 74.7595C523.798 74.0319 525.684 74.7413 526.412 76.3455C527.137 77.9439 526.426 79.8348 524.827 80.5598L505.277 89.4261C503.678 90.1511 501.792 89.4418 501.063 87.8417C500.335 86.2374 501.044 84.3508 502.649 83.6233L522.193 74.7595Z" fill="#333333"/>
<path d="M430.203 123.473C428.604 124.198 426.718 123.488 425.988 121.888C425.261 120.284 425.97 118.397 427.574 117.67L447.119 108.806C448.723 108.079 450.61 108.788 451.337 110.392C452.062 111.991 451.351 113.882 449.753 114.607L430.203 123.473Z" fill="#333333"/>
<path d="M426.452 83.8146C424.807 83.1961 423.975 81.3621 424.593 79.7162C425.213 78.0671 427.047 77.2344 428.693 77.8532L448.783 85.4064C450.432 86.0264 451.265 87.8605 450.644 89.5107C450.026 91.1556 448.192 91.9882 446.542 91.3677L426.452 83.8146Z" fill="#333333"/>
<path d="M51.9993 18C65.7952 18 76.9991 29.2043 76.9991 42.9998C76.9991 56.565 66.1678 67.603 52.6912 67.9705C52.4632 67.9946 52.2331 68 52.0004 68C51.7677 68 51.5376 67.9906 51.3096 67.9705C37.831 67.6036 27 56.565 27 42.9998C27 29.2039 38.2043 18 51.9998 18H51.9993ZM52.9906 20.0429H52.9611V32.423H61.3745C60.8346 30.1848 60.131 28.1418 59.3014 26.4134C57.5467 22.7574 55.298 20.5427 52.9913 20.0429H52.9906ZM51.0375 20.0429C48.7202 20.5298 46.4599 22.7412 44.6972 26.4134C43.8675 28.1418 43.164 30.1848 42.6241 32.423H51.0375V20.0429ZM57.6782 20.6439C58.9499 21.9229 60.0714 23.6085 61.0137 25.5716C61.9695 27.5623 62.7428 29.889 63.3278 32.4221H72.4924C69.4989 26.6286 64.1454 22.2762 57.6791 20.643L57.6782 20.6439ZM46.3205 20.6439C39.8542 22.2771 34.4998 26.6285 31.5072 32.423H40.6718C41.2567 29.8897 42.03 27.5623 42.9859 25.5724C43.9282 23.6085 45.0497 21.9237 46.3213 20.6447L46.3205 20.6439ZM73.3945 34.3459H63.7187C64.158 36.761 64.4196 39.3414 64.4699 42.0383H75.0471C74.9344 39.3294 74.3603 36.7343 73.3945 34.3459ZM61.7958 34.3459H52.9619V42.0383H62.547C62.494 39.3273 62.2486 36.7377 61.7958 34.3459ZM51.039 34.3459H42.2051C41.7524 36.7377 41.5069 39.3266 41.4539 42.0383H51.039V34.3459ZM40.2822 34.3459H30.6065C29.6406 36.7343 29.0665 39.3292 28.9538 42.0383H39.531C39.582 39.3414 39.8429 36.7612 40.2822 34.3459ZM75.0485 43.9612H64.4713C64.421 46.6568 64.1587 49.2438 63.7201 51.6536H73.3959C74.3583 49.2653 74.9392 46.6696 75.0485 43.9612ZM62.5484 43.9612H52.9633V51.6536H61.7972C62.2506 49.2646 62.4961 46.6756 62.5484 43.9612ZM51.0404 43.9612H41.4553C41.5069 46.6756 41.7531 49.2646 42.2065 51.6536H51.0404V43.9612ZM39.5324 43.9612H28.9552C29.0645 46.6689 29.6454 49.2653 30.6078 51.6536H40.2836C39.845 49.2445 39.582 46.6568 39.5324 43.9612ZM72.525 53.5765H63.3302C62.7453 56.1031 61.972 58.407 61.0161 60.3977C60.0664 62.3763 58.9342 64.0967 57.6504 65.3859C64.1428 63.7547 69.5302 59.3971 72.5241 53.5774L72.525 53.5765ZM61.377 53.5765H52.9636V65.986C55.2809 65.4937 57.5412 63.2274 59.3039 59.5559C60.1336 57.8275 60.8372 55.808 61.377 53.5765V53.5765ZM51.0407 53.5765H42.6273C43.1673 55.8087 43.8708 57.8282 44.7005 59.5559C46.4632 63.2274 48.7235 65.4937 51.0407 65.986V53.5765ZM40.6742 53.5765H31.4794C34.4735 59.3969 39.8605 63.7545 46.3531 65.385C45.0694 64.0959 43.9373 62.3756 42.9874 60.3969C42.0316 58.4062 41.2584 56.1029 40.6734 53.5757L40.6742 53.5765Z" fill="#333333"/>
</svg>
