<svg width="196" height="152" fill="none" xmlns="http://www.w3.org/2000/svg"><path d="M.85 150.012a1.316 1.316 0 0 1-.402-.976v-37.999a1.464 1.464 0 0 1 .382-1.039 1.313 1.313 0 0 1 1.017-.403H6.57a1.904 1.904 0 0 1 1.737 1.103l11.252 20.877 11.25-20.877a1.905 1.905 0 0 1 1.737-1.103h4.662a1.444 1.444 0 0 1 1.06.403 1.395 1.395 0 0 1 .401 1.039v37.999a1.314 1.314 0 0 1-.402 1.018c-.29.26-.67.397-1.06.382H32.23a1.331 1.331 0 0 1-.996-.424 1.316 1.316 0 0 1-.403-.976v-25.099l-8.093 15.403a2.123 2.123 0 0 1-1.928 1.294h-2.458a2.281 2.281 0 0 1-1.97-1.294l-8.094-15.403v25.099a1.38 1.38 0 0 1-.382.976 1.334 1.334 0 0 1-1.017.424H1.868a1.379 1.379 0 0 1-1.017-.424Zm43.522.064a1.181 1.181 0 0 1-.339-.87v-.53l13.984-37.638a2.117 2.117 0 0 1 2.119-1.443h6.356a2.12 2.12 0 0 1 2.119 1.443l13.984 37.638v.53a1.126 1.126 0 0 1-.36.87c-.228.222-.53.351-.848.361h-5.191a1.694 1.694 0 0 1-1.695-1.124l-2.67-7.044H54.586l-2.691 7.044a1.676 1.676 0 0 1-1.695 1.124h-5.17a1.212 1.212 0 0 1-.657-.361Zm12.48-14.597h13.157l-6.568-17.949-6.59 17.949Zm31.718 14.529a1.332 1.332 0 0 1-.424-.976v-37.999a1.465 1.465 0 0 1 .382-1.039 1.313 1.313 0 0 1 1.016-.403h15.616a16.937 16.937 0 0 1 11.081 3.224 11.907 11.907 0 0 1 4.025 9.696 11.507 11.507 0 0 1-4.025 9.527 17.194 17.194 0 0 1-11.081 3.246h-8.475v13.663a1.315 1.315 0 0 1-.403 1.018c-.29.262-.67.399-1.06.382H89.63a1.327 1.327 0 0 1-1.06-.339Zm16.314-21.217a7.39 7.39 0 0 0 5.149-1.612 5.982 5.982 0 0 0 1.78-4.689 6.381 6.381 0 0 0-1.717-4.731 7.15 7.15 0 0 0-5.212-1.676h-8.475v12.73l8.475-.022Zm22.474 21.221a1.401 1.401 0 0 1-.403-.976v-37.999a1.46 1.46 0 0 1 .382-1.039 1.305 1.305 0 0 1 1.016-.404h25.701a1.364 1.364 0 0 1 1.038.404 1.386 1.386 0 0 1 .424 1.039v3.904a1.338 1.338 0 0 1-.424 1.018 1.416 1.416 0 0 1-1.038.382h-19.069v10.205h17.819a1.402 1.402 0 0 1 1.059.403 1.401 1.401 0 0 1 .403 1.061v3.692a1.307 1.307 0 0 1-.403 1.018 1.48 1.48 0 0 1-1.059.382h-17.819v10.608h19.578a1.411 1.411 0 0 1 1.359.846c.073.175.108.364.102.555v3.988a1.335 1.335 0 0 1-.424 1.019 1.411 1.411 0 0 1-1.037.382h-26.167a1.388 1.388 0 0 1-1.038-.488Zm38.381-3.051a15.976 15.976 0 0 1-4.661-11.945v-9.993a15.939 15.939 0 0 1 4.661-11.902 17.55 17.55 0 0 1 12.289-4.138 17.594 17.594 0 0 1 12.267 4.138 15.98 15.98 0 0 1 4.81 11.902v9.993a15.936 15.936 0 0 1-4.704 11.945 17.742 17.742 0 0 1-12.373 4.031 17.737 17.737 0 0 1-12.289-4.031Zm18.581-5.071c1.685-2 2.561-4.557 2.458-7.171 0-2.334.106-3.925.106-4.731 0-.807 0-2.461-.106-4.732a10.613 10.613 0 0 0-2.5-7.149 8.253 8.253 0 0 0-6.123-2.355 8.332 8.332 0 0 0-6.187 2.355 10.279 10.279 0 0 0-2.437 7.149v9.463a10.385 10.385 0 0 0 2.416 7.15 8.26 8.26 0 0 0 6.208 2.355 8.2 8.2 0 0 0 6.081-2.334h.084Z" fill="#fff"/><path d="M102.554 82.794a2.39 2.39 0 0 1-1.928-.997c-1.038-1.507-25.319-36.874-25.319-51.195a27.346 27.346 0 0 1 7.993-19.28 27.27 27.27 0 0 1 19.254-8.005 27.249 27.249 0 0 1 19.247 8.005 27.327 27.327 0 0 1 7.98 19.28c0 14.32-24.281 49.688-25.32 51.195a2.323 2.323 0 0 1-1.907.997Zm0-65.453a14.482 14.482 0 0 0-10.226 4.25 14.522 14.522 0 0 0-4.245 10.241c0 3.843 1.525 7.53 4.239 10.247a14.462 14.462 0 0 0 10.232 4.244 14.484 14.484 0 0 0 10.186-4.273 14.52 14.52 0 0 0 4.222-10.218 14.539 14.539 0 0 0-4.221-10.225 14.502 14.502 0 0 0-10.187-4.287v.021Z" fill="#F93"/><path d="M102.582 5.661a24.887 24.887 0 0 1 17.673 7.278 24.97 24.97 0 0 1 7.328 17.673c0 13.77-24.896 49.858-24.896 49.858S77.792 44.402 77.792 30.612a24.969 24.969 0 0 1 7.253-17.598 24.901 24.901 0 0 1 17.537-7.353Zm0 43.027a16.807 16.807 0 0 0 11.881-4.941 16.854 16.854 0 0 0-.001-23.801 16.79 16.79 0 0 0-11.88-4.928 16.81 16.81 0 0 0-11.888 4.926 16.857 16.857 0 0 0-4.935 11.898 16.985 16.985 0 0 0 4.964 11.875 16.939 16.939 0 0 0 11.859 4.971Zm0-47.694a29.642 29.642 0 0 0-20.975 8.7 29.724 29.724 0 0 0-8.688 21.003c0 14.851 23.094 48.798 25.722 52.51a4.685 4.685 0 0 0 3.856 2.122 4.634 4.634 0 0 0 3.898-2.228c2.628-3.819 25.722-37.723 25.722-52.51 0-7.86-3.11-15.399-8.65-20.966A29.643 29.643 0 0 0 102.561.888l.021.106Zm0 43.005a12.153 12.153 0 0 1-8.579-3.566 12.189 12.189 0 0 1-3.562-8.59 12.188 12.188 0 0 1 3.562-8.59 12.154 12.154 0 0 1 8.579-3.568 12.154 12.154 0 0 1 8.578 3.567 12.186 12.186 0 0 1 3.562 8.59 12.187 12.187 0 0 1-3.562 8.59A12.153 12.153 0 0 1 102.582 44Z" fill="#EA7913"/></svg>