<svg xmlns="http://www.w3.org/2000/svg" fill="none" viewBox="0 0 304 40"><g clip-path="url(#a)"><path fill="#fff" d="M42.88 37.31a1 1 0 0 1-.3-.75V7.8a1.1 1.1 0 0 1 .28-.8 1 1 0 0 1 .78-.3h3.58a1.47 1.47 0 0 1 1.33.84l8.54 15.84 8.54-15.84a1.47 1.47 0 0 1 1.32-.85h3.54a1.1 1.1 0 0 1 .8.31 1.1 1.1 0 0 1 .3.8v28.76a1 1 0 0 1-.67 1 1.1 1.1 0 0 1-.43.06h-3.8a1.01 1.01 0 0 1-.75-.3 1 1 0 0 1-.31-.76V17.53l-6.15 11.69a1.55 1.55 0 0 1-1.46.97h-1.86a1.7 1.7 0 0 1-1.5-.97L48.5 17.53v19.03c0 .28-.1.55-.28.75a1 1 0 0 1-.78.31h-3.8a1.01 1.01 0 0 1-.76-.3ZM75.92 37.36a.9.9 0 0 1-.27-.66l.09-.4L86.36 7.76a1.6 1.6 0 0 1 1.6-1.1h4.86a1.6 1.6 0 0 1 1.6 1.1l10.6 28.54.1.4a.87.87 0 0 1-.29.66.93.93 0 0 1-.64.27h-3.94a1.27 1.27 0 0 1-1.28-.84l-2.04-5.36h-13.1L81.8 36.8a1.27 1.27 0 0 1-1.28.84h-3.98a.9.9 0 0 1-.62-.27Zm9.46-11.06h9.96l-5-13.63-4.96 13.63ZM109.5 37.31a1 1 0 0 1-.3-.75V7.8a1.1 1.1 0 0 1 .28-.8 1 1 0 0 1 .78-.3h11.85c3.58 0 6.38.84 8.41 2.52a8.97 8.97 0 0 1 3.05 7.34 8.74 8.74 0 0 1-3.05 7.24c-2.03 1.63-4.84 2.45-8.4 2.45h-6.5V36.6a1 1 0 0 1-.69 1 1.1 1.1 0 0 1-.43.07h-4.24a1 1 0 0 1-.75-.36Zm12.4-16.06c1.4.1 2.8-.34 3.91-1.22a4.57 4.57 0 0 0 1.35-3.56 4.77 4.77 0 0 0-1.3-3.58 5.46 5.46 0 0 0-3.97-1.28h-6.37v9.64h6.37ZM138.93 37.31a1 1 0 0 1-.31-.75V7.8a1.13 1.13 0 0 1 .28-.8 1 1 0 0 1 .78-.3h19.51a1.1 1.1 0 0 1 .8.3 1.1 1.1 0 0 1 .3.8v2.97a1 1 0 0 1-.3.77 1.11 1.11 0 0 1-.8.29h-14.51v7.74h13.54a1.1 1.1 0 0 1 .8.31 1.11 1.11 0 0 1 .3.8v2.78a.98.98 0 0 1-.3.78 1.11 1.11 0 0 1-.8.29h-13.54v8h14.82a1.11 1.11 0 0 1 .8.3 1 1 0 0 1 .3.77v3a.98.98 0 0 1-.3.78 1.11 1.11 0 0 1-.8.29h-19.91a1 1 0 0 1-.66-.36ZM168 35.01c-2.22-2.03-3.43-5.05-3.55-9.07v-7.56c.12-3.94 1.33-6.95 3.63-9.03 2.6-2.2 5.94-3.32 9.34-3.14 3.39-.18 6.72.95 9.31 3.14 2.32 2.08 3.53 5.1 3.65 9.02.06 1.72.09 2.98.09 3.8 0 .84 0 2.06-.09 3.77-.12 4.02-1.31 7.04-3.56 9.07-2.25 2.03-5.38 3.05-9.4 3.05-4.04 0-7.19-1.01-9.43-3.05Zm14.1-3.85a7.97 7.97 0 0 0 1.87-5.44c0-1.77.08-2.97.08-3.59 0-.61 0-1.86-.09-3.58a7.83 7.83 0 0 0-1.9-5.42 6.25 6.25 0 0 0-4.64-1.8 6.3 6.3 0 0 0-4.7 1.8 7.66 7.66 0 0 0-1.85 5.42v7.17a7.74 7.74 0 0 0 1.84 5.42 6.27 6.27 0 0 0 4.7 1.8 6.23 6.23 0 0 0 4.7-1.73v-.05Z"/><path fill="#F93" d="M14 38.74a1.1 1.1 0 0 1-.92-.48C12.6 37.56 1.1 20.82 1.1 14.04A12.92 12.92 0 0 1 23.12 4.9a12.9 12.9 0 0 1 3.78 9.13c0 6.78-11.5 23.51-12 24.22a1.1 1.1 0 0 1-.9.48Zm0-30.98a6.87 6.87 0 0 0 0 13.72 6.87 6.87 0 0 0 0-13.72Z"/><path fill="#EA7913" d="M14.01 2.21a11.8 11.8 0 0 1 11.8 11.8c0 6.52-11.8 23.6-11.8 23.6S2.21 20.53 2.21 14a11.8 11.8 0 0 1 11.8-11.8Zm0 20.36a7.96 7.96 0 1 0 0-15.93 7.96 7.96 0 0 0 0 15.93Zm0-22.57A14.03 14.03 0 0 0 0 14.01c0 7 10.94 23.05 12.17 24.86a2.21 2.21 0 0 0 3.64 0c1.25-1.81 12.16-17.85 12.16-24.86A14.03 14.03 0 0 0 13.97 0h.04Zm0 20.35a5.75 5.75 0 1 1 0-11.5 5.75 5.75 0 0 1 0 11.5Z"/></g><path fill="#fff" d="M214.34 27a.7.7 0 0 1-.48-.16.98.98 0 0 1-.22-.44l-2.38-12.82-.02-.1v-.06a.4.4 0 0 1 .12-.3c.09-.08.19-.12.3-.12h1.76c.33 0 .52.13.56.4l1.66 9.06 1.8-5.86c.04-.1.1-.21.2-.32.1-.12.26-.18.46-.18h1.08c.2 0 .36.06.46.18.09.1.15.21.18.32l1.82 5.84 1.66-9.04c.04-.27.22-.4.56-.4h1.76c.1 0 .2.04.28.12a.4.4 0 0 1 .12.3v.06l-.02.1-2.38 12.82a.77.77 0 0 1-.22.44.7.7 0 0 1-.48.16h-1.34a.7.7 0 0 1-.48-.16.87.87 0 0 1-.22-.34l-2.24-6.68-2.24 6.68c-.06.12-.14.23-.24.34-.11.1-.27.16-.48.16h-1.34Zm17.85.2a4.8 4.8 0 0 1-3.52-1.28 5.2 5.2 0 0 1-1.4-3.64 5.28 5.28 0 0 1 0-1c.06-1 .28-1.87.68-2.6a4.2 4.2 0 0 1 1.7-1.68c.72-.4 1.57-.6 2.54-.6 1.08 0 2 .23 2.72.68a4.17 4.17 0 0 1 1.66 1.86c.38.79.56 1.7.56 2.74v.42c0 .13-.04.25-.14.34-.09.1-.2.14-.36.14H230v.16c.02.47.1.9.26 1.3.18.39.42.7.74.94.34.24.73.36 1.18.36.38 0 .7-.05.94-.16a2.5 2.5 0 0 0 .96-.76c.12-.16.22-.25.28-.28.08-.04.2-.06.34-.06h1.72c.14 0 .24.04.32.12.1.08.14.18.12.3 0 .21-.12.47-.34.78-.2.3-.49.6-.88.9-.38.3-.87.54-1.46.74a6.4 6.4 0 0 1-1.98.28Zm-2.2-6.3h4.42v-.06c0-.52-.08-.97-.26-1.36a2.08 2.08 0 0 0-1.96-1.26c-.46 0-.86.11-1.2.34-.33.23-.58.53-.76.92-.16.39-.24.84-.24 1.36v.06Zm15.03 6.3c-.78 0-1.42-.13-1.94-.4-.51-.27-.93-.6-1.26-1.02v.74c0 .13-.05.25-.14.34-.08.1-.2.14-.34.14h-1.58a.46.46 0 0 1-.34-.14.46.46 0 0 1-.14-.34V13.28c0-.13.04-.25.14-.34.09-.1.2-.14.34-.14h1.7c.14 0 .26.05.34.14.09.1.14.2.14.34v4.44a3.82 3.82 0 0 1 3.08-1.32c.7 0 1.32.12 1.84.36s.95.58 1.3 1.02c.36.43.63.93.82 1.5.18.57.28 1.2.3 1.86a12.31 12.31 0 0 1 0 1.3c-.03.7-.14 1.33-.32 1.92a4.62 4.62 0 0 1-.8 1.5c-.35.43-.78.76-1.3 1-.52.23-1.14.34-1.84.34Zm-.74-2.14a2.2 2.2 0 0 0 1.34-.36c.32-.25.54-.58.68-.98s.23-.84.26-1.32c.02-.4.02-.8 0-1.2a4.55 4.55 0 0 0-.26-1.32c-.14-.4-.36-.72-.68-.96a2.1 2.1 0 0 0-1.34-.38c-.54 0-.97.12-1.3.36-.34.24-.59.55-.76.92-.18.36-.27.74-.28 1.14a14.46 14.46 0 0 0 0 1.54c.02.41.11.82.26 1.22.16.39.4.7.74.96.34.25.79.38 1.34.38ZM252 27a.46.46 0 0 1-.34-.14.46.46 0 0 1-.14-.34v-9.44c0-.13.05-.25.14-.34.1-.1.2-.14.34-.14h1.56c.14 0 .25.05.34.14.1.1.14.2.14.34v.68a3.6 3.6 0 0 1 2.82-1.36c1.52-.03 2.58.57 3.18 1.78.3-.53.75-.96 1.32-1.28.59-.33 1.24-.5 1.94-.5s1.32.16 1.88.48c.58.32 1.02.8 1.34 1.46.34.64.5 1.45.5 2.44v5.74c0 .13-.04.25-.14.34-.1.1-.2.14-.34.14h-1.64a.46.46 0 0 1-.34-.14.46.46 0 0 1-.14-.34v-5.58c0-.6-.08-1.07-.26-1.42-.17-.36-.4-.61-.7-.76-.3-.15-.62-.22-.98-.22-.3 0-.58.07-.88.22-.3.15-.53.4-.72.76-.18.35-.28.82-.28 1.42v5.58c0 .13-.04.25-.14.34-.1.1-.2.14-.34.14h-1.64a.49.49 0 0 1-.36-.14.5.5 0 0 1-.12-.34v-5.58c0-.6-.1-1.07-.28-1.42a1.67 1.67 0 0 0-.72-.76c-.3-.15-.6-.22-.94-.22a1.86 1.86 0 0 0-1.62.98c-.18.35-.28.82-.28 1.42v5.58c0 .13-.04.25-.14.34-.1.1-.2.14-.34.14H252Zm20.59.2c-.7 0-1.32-.13-1.88-.4-.56-.28-1-.65-1.34-1.1a2.7 2.7 0 0 1-.48-1.56c0-.93.37-1.67 1.12-2.22a6.66 6.66 0 0 1 3-1.12l2.74-.4v-.42c0-.56-.14-1-.42-1.3-.28-.3-.76-.46-1.44-.46-.48 0-.87.1-1.18.3-.3.19-.51.44-.66.76a.51.51 0 0 1-.46.26h-1.58c-.15 0-.26-.04-.34-.12a.48.48 0 0 1-.1-.32c.01-.21.1-.47.26-.78.16-.3.41-.6.76-.88.35-.3.8-.54 1.34-.74.55-.2 1.2-.3 1.98-.3.84 0 1.55.1 2.12.32a3.15 3.15 0 0 1 2.16 2.04c.16.47.24.96.24 1.48v6.28c0 .13-.05.25-.14.34-.1.1-.2.14-.34.14h-1.62a.49.49 0 0 1-.36-.14.5.5 0 0 1-.12-.34v-.78a3.25 3.25 0 0 1-1.78 1.26c-.41.13-.9.2-1.48.2Zm.68-1.9c.47 0 .89-.1 1.26-.3.39-.2.69-.5.9-.92.23-.43.34-.96.34-1.6v-.42l-2 .32a4.3 4.3 0 0 0-1.76.58c-.39.27-.58.6-.58.98 0 .3.09.55.26.76.19.2.42.35.7.46.28.1.57.14.88.14Zm8.23 5.5a.46.46 0 0 1-.35-.14.46.46 0 0 1-.13-.34V17.08c0-.13.04-.25.13-.34.1-.1.21-.14.35-.14h1.57c.15 0 .26.05.35.14.09.1.13.2.13.34v.8a3.8 3.8 0 0 1 3.2-1.48c.71 0 1.32.11 1.85.34.51.23.95.55 1.3.98.34.41.6.9.8 1.48.18.57.29 1.2.31 1.9a11.37 11.37 0 0 1-.3 3.28 4.44 4.44 0 0 1-.81 1.48c-.35.41-.78.74-1.3.98-.53.24-1.14.36-1.85.36-.71 0-1.33-.13-1.83-.38-.51-.27-.93-.61-1.25-1.04v4.54c0 .13-.04.25-.13.34-.09.1-.2.14-.35.14h-1.7Zm4.51-5.74a2.2 2.2 0 0 0 1.35-.36c.31-.25.54-.58.68-.98s.23-.84.25-1.32c.03-.4.03-.8 0-1.2a4.52 4.52 0 0 0-.25-1.32c-.14-.4-.37-.72-.69-.96a2.1 2.1 0 0 0-1.34-.38c-.54 0-.99.13-1.33.38-.34.25-.58.58-.75.98-.14.39-.23.79-.25 1.2a14.06 14.06 0 0 0 0 1.54c0 .4.1.79.27 1.16.18.36.43.66.76.9.34.24.77.36 1.3.36Zm11.21 2.14c-.8 0-1.49-.1-2.06-.28a4.6 4.6 0 0 1-1.38-.7 3.33 3.33 0 0 1-.8-.84 1.66 1.66 0 0 1-.28-.7c-.01-.15.03-.26.12-.34.1-.1.22-.14.34-.14h1.58c.05 0 .1 0 .14.02a71.57 71.57 0 0 1 .7.58c.2.16.43.3.7.42.27.1.6.16 1 .16.52 0 .95-.1 1.3-.3a1 1 0 0 0 .54-.9c0-.28-.08-.5-.24-.68a1.85 1.85 0 0 0-.84-.46c-.41-.15-1-.3-1.76-.46a7.52 7.52 0 0 1-1.86-.66c-.5-.27-.86-.6-1.1-1-.24-.4-.36-.87-.36-1.4 0-.52.15-1.01.46-1.48.32-.48.79-.87 1.4-1.18.63-.3 1.4-.46 2.32-.46.72 0 1.35.1 1.88.28a4.35 4.35 0 0 1 2.14 1.48c.19.27.29.5.3.7a.42.42 0 0 1-.12.36c-.1.08-.2.12-.32.12h-1.48a.4.4 0 0 1-.18-.04 1.1 1.1 0 0 1-.16-.1l-.48-.42a2.45 2.45 0 0 0-1.6-.56c-.5 0-.9.11-1.16.34a1 1 0 0 0-.4.82c0 .23.06.43.18.6.13.16.4.31.78.46.39.15.97.3 1.76.46.9.16 1.6.4 2.12.72a2.67 2.67 0 0 1 1.46 2.42c0 .6-.18 1.14-.54 1.62-.35.48-.87.86-1.56 1.14a7 7 0 0 1-2.54.4Z"/><defs><clipPath id="a"><path fill="#fff" d="M0 0h190.48v40H0z"/></clipPath></defs></svg>