<svg width="350" height="350" fill="none" xmlns="http://www.w3.org/2000/svg">
  <circle cx="175" cy="175" r="175" fill="url(#green-gradient)"/>
  <path d="M223.751 295.349a2.14 2.14 0 0 1-2.142-2.14v-75.14a2.14 2.14 0 0 1 4.283 0v72.573l44.465-8.233-.002-182.804-44.463 7.44v78.412a2.14 2.14 0 0 1-2.141 2.139 2.14 2.14 0 0 1-2.142-2.139v-80.226c0-1.045.756-1.937 1.788-2.109l48.747-8.16a2.143 2.143 0 0 1 2.494 2.112v187.103-.002a2.134 2.134 0 0 1-1.752 2.105l-48.747 9.024.002.002c-.128.026-.26.04-.39.042v.001Z" fill="#333"/><path d="M223.75 295.349c-.132 0-.262-.011-.39-.036l-48.749-9.024a2.141 2.141 0 0 1-1.752-2.105v-59.34a2.14 2.14 0 0 1 4.283 0v57.56l44.467 8.237v-72.573a2.14 2.14 0 0 1 4.283 0v75.14a2.142 2.142 0 0 1-2.142 2.14v.001Zm.001-107.752a2.14 2.14 0 0 1-2.142-2.139v-78.412l-46.961-7.858a2.14 2.14 0 1 1 .707-4.222l48.75 8.161a2.14 2.14 0 0 1 1.787 2.108v80.226a2.14 2.14 0 0 1-2.141 2.134v.002Zm-97.501 26.436a2.142 2.142 0 0 1-2.142-2.14v-57.727a2.14 2.14 0 0 1 2.142-2.139 2.14 2.14 0 0 1 2.141 2.139v57.727a2.137 2.137 0 0 1-2.141 2.14Zm0 81.316c-.13 0-.26-.011-.39-.036l-48.748-9.024h.002a2.138 2.138 0 0 1-1.751-2.105V97.081a2.142 2.142 0 0 1 2.493-2.113l20.034 3.346a2.14 2.14 0 1 1-.708 4.221l-17.538-2.928.002 182.799 44.462 8.237v-46.639a2.14 2.14 0 0 1 2.142-2.139 2.14 2.14 0 0 1 2.141 2.139v49.204a2.139 2.139 0 0 1-2.141 2.139v.002Z" fill="#333"/><path d="M126.25 214.033a2.142 2.142 0 0 1-2.142-2.14v-57.727a2.14 2.14 0 0 1 2.142-2.139 2.14 2.14 0 0 1 2.141 2.139v57.727a2.137 2.137 0 0 1-2.141 2.14Zm28.717-111.469a2.14 2.14 0 0 1-.35-4.254l20.033-3.346h-.001a2.14 2.14 0 1 1 .707 4.221l-20.034 3.349a2.452 2.452 0 0 1-.355.03ZM126.25 295.349a2.14 2.14 0 0 1-2.142-2.139v-49.204a2.14 2.14 0 0 1 2.142-2.139 2.14 2.14 0 0 1 2.141 2.139v46.639l44.467-8.237v-57.561a2.14 2.14 0 0 1 4.283 0v59.341a2.142 2.142 0 0 1-1.752 2.105l-48.749 9.024a2.112 2.112 0 0 1-.39.036v-.004Z" fill="#333"/><path d="M196.948 190.561a2.137 2.137 0 0 1-2.08-1.641L172.92 97.569a2.139 2.139 0 0 1 1.595-2.523 2.141 2.141 0 0 1 2.569 1.524l21.508 89.517 24.559-2.716 48.428-23.211a2.139 2.139 0 0 1 1.684-.162 2.139 2.139 0 0 1 .168 4.013l-48.749 23.375a2.078 2.078 0 0 1-.69.197l-26.808 2.966a2.35 2.35 0 0 1-.237.012h.001ZM77.5 222.194a2.143 2.143 0 0 1-2.142-1.963 2.141 2.141 0 0 1 1.791-2.289l48.457-8.109 40.941-19.185-18.643-76.001a2.135 2.135 0 0 1 1.569-2.586 2.14 2.14 0 0 1 2.591 1.568l19.059 77.698a2.142 2.142 0 0 1-1.171 2.447l-42.793 20.062a2.28 2.28 0 0 1-.556.176l-48.748 8.148a2.463 2.463 0 0 1-.356.031v.003Zm0 31.067a2.141 2.141 0 0 1-2.14-1.987 2.141 2.141 0 0 1 1.834-2.271l48.504-7.06 48.518-19.083c.157-.061.321-.103.488-.126l48.56-6.754 48.563-15.971a2.139 2.139 0 1 1 1.339 4.065l-48.75 16.023c-.12.04-.246.07-.374.088l-48.493 6.741-48.516 19.079a2.185 2.185 0 0 1-.476.126l-48.75 7.107h.002a2.017 2.017 0 0 1-.31.023Z" fill="#333"/><path d="M126.25 156.306a2.144 2.144 0 0 1-1.713-.856c-1.266-1.683-30.963-41.535-30.963-67.067a32.63 32.63 0 0 1 9.476-23.254 32.69 32.69 0 0 1 23.199-9.654 32.692 32.692 0 0 1 23.198 9.654 32.626 32.626 0 0 1 9.476 23.254c0 25.533-29.699 65.385-30.963 67.067a2.137 2.137 0 0 1-1.711.856h.001Zm0-96.29a28.43 28.43 0 0 0-20.066 8.317 28.383 28.383 0 0 0-8.325 20.05c0 20.717 22.007 53.159 28.391 62.137 6.384-8.974 28.392-41.418 28.392-62.138a28.378 28.378 0 0 0-8.324-20.049 28.437 28.437 0 0 0-20.068-8.317Z" fill="#333"/><path d="M126.25 109.527a21.556 21.556 0 0 1-15.231-6.301 21.508 21.508 0 0 1 0-30.435 21.55 21.55 0 0 1 30.463 0 21.514 21.514 0 0 1 6.308 15.216 21.533 21.533 0 0 1-6.315 15.211 21.57 21.57 0 0 1-15.225 6.309Zm0-38.76a17.265 17.265 0 0 0-12.203 5.05 17.23 17.23 0 0 0 0 24.383 17.27 17.27 0 0 0 24.407 0 17.24 17.24 0 0 0 5.053-12.193 17.245 17.245 0 0 0-5.059-12.185 17.293 17.293 0 0 0-12.198-5.056Z" fill="#333"/><defs>
  <linearGradient id="green-gradient" x1="175" y1="0" x2="175" y2="350" gradientUnits="userSpaceOnUse">
    <stop stop-color="#C4FFD5"/>
    <stop offset="1" stop-color="#E5FFE5"/>
  </linearGradient>
  </defs>
  </svg>